{
  "accessors": [
    {
      "bufferView": 2,
      "componentType": 5126,
      "count": 165,
      "max": [
        1.0,
        1.0,
        1.0
      ],
      "min": [
        -1.0,
        -1.0,
        -1.0
      ],
      "type": "VEC3"
    },
    {
      "bufferView": 2,
      "byteOffset": 1980,
      "componentType": 5126,
      "count": 165,
      "max": [
        0.9807853698730469,
        1.0,
        0.9807853698730469
      ],
      "min": [
        -0.9807853698730469,
        -1.0,
        -0.9807853698730469
      ],
      "type": "VEC3"
    },
    {
      "bufferView": 1,
      "componentType": 5126,
      "count": 165,
      "max": [
        0.7781220078468323,
        0.9593660235404968
      ],
      "min": [
        0.125,
        0.0
      ],
      "type": "VEC2"
    },
    {
      "bufferView": 0,
      "componentType": 5125,
      "count": 432,
      "type": "SCALAR"
    },
    {
      "bufferView": 2,
      "byteOffset": 3960,
      "componentType": 5126,
      "count": 275,
      "max": [
        1.0,
        1.0,
        1.0
      ],
      "min": [
        -1.0,
        -1.0,
        -1.0
      ],
      "type": "VEC3"
    },
    {
      "bufferView": 2,
      "byteOffset": 7260,
      "componentType": 5126,
      "count": 275,
      "max": [
        0.9807853698730469,
        1.0,
        0.9807853698730469
      ],
      "min": [
        -0.9807853698730469,
        -1.0,
        -0.9807853698730469
      ],
      "type": "VEC3"
    },
    {
      "bufferView": 1,
      "byteOffset": 1320,
      "componentType": 5126,
      "count": 275,
      "max": [
        0.8343660235404968,
        0.9593660235404968
      ],
      "min": [
        0.125,
        0.0
      ],
      "type": "VEC2"
    },
    {
      "bufferView": 0,
      "byteOffset": 1728,
      "componentType": 5125,
      "count": 564,
      "type": "SCALAR"
    },
    {
      "bufferView": 2,
      "byteOffset": 10560,
      "componentType": 5126,
      "count": 264,
      "max": [
        3.65625,
        0.10084544867277145,
        0.588013231754303
      ],
      "min": [
        -1.0,
        -0.10084544867277145,
        -0.588013231754303
      ],
      "type": "VEC3"
    },
    {
      "bufferView": 2,
      "byteOffset": 13728,
      "componentType": 5126,
      "count": 264,
      "max": [
        1.0,
        1.0,
        0.9328919053077698
      ],
      "min": [
        -1.0,
        -1.0,
        -0.9328914880752563
      ],
      "type": "VEC3"
    },
    {
      "bufferView": 1,
      "byteOffset": 3520,
      "componentType": 5126,
      "count": 264,
      "max": [
        1.0,
        1.0
      ],
      "min": [
        0.0,
        0.5
      ],
      "type": "VEC2"
    },
    {
      "bufferView": 0,
      "byteOffset": 3984,
      "componentType": 5125,
      "count": 1500,
      "type": "SCALAR"
    }
  ],
  "asset": {
    "extras": {
      "author": "Aris Hadisopiyan (https://sketchfab.com/aris.hadisopiyan)",
      "license": "CC-BY-NC-SA-4.0 (http://creativecommons.org/licenses/by-nc-sa/4.0/)",
      "source": "https://sketchfab.com/3d-models/eid-ketupat-indonesian-traditional-a9e754d0fc944605bd7a134108635e42",
      "title": "Eid Ketupat, Indonesian traditional"
    },
    "generator": "Sketchfab-12.89.0",
    "version": "2.0"
  },
  "bufferViews": [
    {
      "buffer": 0,
      "byteLength": 9984,
      "name": "floatBufferViews",
      "target": 34963
    },
    {
      "buffer": 0,
      "byteLength": 5632,
      "byteOffset": 9984,
      "byteStride": 8,
      "name": "floatBufferViews",
      "target": 34962
    },
    {
      "buffer": 0,
      "byteLength": 16896,
      "byteOffset": 15616,
      "byteStride": 12,
      "name": "floatBufferViews",
      "target": 34962
    }
  ],
  "buffers": [
    {
      "byteLength": 32512,
      "uri": "scene.bin"
    }
  ],
  "materials": [
    {
      "doubleSided": true,
      "name": "Material.001",
      "pbrMetallicRoughness": {
        "baseColorFactor": [
          0.5539657953065811,
          0.5539657953065811,
          0.5539657953065811,
          1.0
        ],
        "metallicFactor": 0.0,
        "roughnessFactor": 0.7763932022500211
      }
    },
    {
      "doubleSided": true,
      "name": "Material",
      "pbrMetallicRoughness": {
        "baseColorFactor": [
          0.010571415675963982,
          0.525962426800526,
          0.0018995982835177255,
          1.0
        ],
        "metallicFactor": 0.0,
        "roughnessFactor": 0.8593415233294578
      }
    }
  ],
  "meshes": [
    {
      "name": "Cube_Material.001_0",
      "primitives": [
        {
          "attributes": {
            "NORMAL": 1,
            "POSITION": 0,
            "TEXCOORD_0": 2
          },
          "indices": 3,
          "material": 0,
          "mode": 4
        }
      ]
    },
    {
      "name": "Cube_Material_0",
      "primitives": [
        {
          "attributes": {
            "NORMAL": 5,
            "POSITION": 4,
            "TEXCOORD_0": 6
          },
          "indices": 7,
          "material": 1,
          "mode": 4
        }
      ]
    },
    {
      "name": "Cylinder_Material_0",
      "primitives": [
        {
          "attributes": {
            "NORMAL": 9,
            "POSITION": 8,
            "TEXCOORD_0": 10
          },
          "indices": 11,
          "material": 1,
          "mode": 4
        }
      ]
    }
  ],
  "nodes": [
    {
      "children": [
        1
      ],
      "matrix": [
        1.0,
        0.0,
        0.0,
        0.0,
        0.0,
        2.220446049250313e-16,
        -1.0,
        0.0,
        0.0,
        1.0,
        2.220446049250313e-16,
        0.0,
        0.0,
        0.0,
        0.0,
        1.0
      ],
      "name": "Sketchfab_model"
    },
    {
      "children": [
        2
      ],
      "matrix": [
        0.009999999776482582,
        0.0,
        0.0,
        0.0,
        0.0,
        0.0,
        0.009999999776482582,
        0.0,
        0.0,
        -0.009999999776482582,
        0.0,
        0.0,
        0.0,
        0.0,
        0.0,
        1.0
      ],
      "name": "0489840de0b04cf184e0e16e6aed4651.fbx"
    },
    {
      "children": [
        3,
        6
      ],
      "name": "RootNode"
    },
    {
      "children": [
        4,
        5
      ],
      "matrix": [
        70.71067657322371,
        -70.71067966408576,
        -1.1102230246251565e-14,
        0.0,
        -1.5454310497986512e-06,
        -1.5454309831852697e-06,
        -49.99999999999996,
        0.0,
        70.7106796640857,
        70.71067657322365,
        -4.371139006309477e-06,
        0.0,
        0.0,
        0.0,
        0.0,
        1.0
      ],
      "name": "Cube"
    },
    {
      "mesh": 0,
      "name": "Cube_Material.001_0"
    },
    {
      "mesh": 1,
      "name": "Cube_Material_0"
    },
    {
      "children": [
        7
      ],
      "matrix": [
        1.9470718881642313e-05,
        -99.9999999999981,
        -3.684595014622101e-13,
        0.0,
        -99.99999999999696,
        -1.9470718881642313e-05,
        1.5099579909783707e-05,
        0.0,
        -5.4234756414523375e-06,
        -9.236462034843653e-13,
        -35.9180564880367,
        0.0,
        0.0,
        128.95108032226563,
        0.0,
        1.0
      ],
      "name": "Cylinder"
    },
    {
      "mesh": 2,
      "name": "Cylinder_Material_0"
    }
  ],
  "scene": 0,
  "scenes": [
    {
      "name": "Sketchfab_Scene",
      "nodes": [
        0
      ]
    }
  ]
}
